<svg version="1.1" xmlns="http://www.w3.org/2000/svg" width="400" height="70" viewBox="0 0 200 35"
  style="fill-rule:evenodd;clip-rule:evenodd;stroke-linejoin:round;stroke-miterlimit:2;">
  <style>
    circle,
    ellipse {
      stroke: slategrey;
    }
    path {
      fill: black;
    }
  </style>
  <g transform="matrix(1,0,0,1,28,23.3333)">
    <g transform="matrix(0.619375,0,0,0.619375,-8.92397,-5.3272)">
      <ellipse cx="0" cy="0" rx="26.8" ry="10.2" style="fill:none;stroke-width:1.61px;" />
    </g>
    <g transform="matrix(0.309688,0.536395,-0.536395,0.309688,-8.92397,-5.3272)">
      <ellipse cx="0" cy="0" rx="26.8" ry="10.2" style="fill:none;stroke-width:1.61px;" />
    </g>
    <g transform="matrix(0.309688,-0.536395,0.536395,0.309688,-8.92397,-5.3272)">
      <ellipse cx="0" cy="0" rx="26.8" ry="10.2" style="fill:none;stroke-width:1.61px;" />
    </g>
    <g transform="matrix(0.309688,-0.536395,0.536395,0.309688,-8.92397,-5.3272)">
      <circle cx="0" cy="0" r="4.25" style="fill:none;stroke-width:1.61px;" />
    </g>
    <g transform="matrix(0.788106,0,0,0.788106,13.0292,3.94093)">
      <g transform="matrix(48,0,0,48,0,0)">
        <path
          d="M0.094,-0.4L0.097,-0.4C0.102,-0.417 0.11,-0.432 0.123,-0.447C0.135,-0.462 0.15,-0.474 0.168,-0.485C0.185,-0.496 0.205,-0.504 0.227,-0.51C0.248,-0.515 0.271,-0.518 0.294,-0.517L0.294,-0.479C0.274,-0.482 0.251,-0.48 0.226,-0.473C0.2,-0.466 0.175,-0.452 0.152,-0.429C0.143,-0.419 0.135,-0.409 0.128,-0.4C0.121,-0.391 0.115,-0.38 0.11,-0.369C0.105,-0.358 0.102,-0.345 0.099,-0.331C0.096,-0.317 0.095,-0.3 0.094,-0.281L0.094,-0L0.056,-0L0.056,-0.514L0.094,-0.514L0.094,-0.4Z"
          style="fill-rule:nonzero;" />
      </g>
      <g transform="matrix(48,0,0,48,12.768,0)">
        <path
          d="M0.071,-0.252L0.071,-0.246C0.071,-0.216 0.075,-0.187 0.083,-0.16C0.091,-0.133 0.103,-0.109 0.119,-0.088C0.134,-0.067 0.154,-0.051 0.178,-0.039C0.201,-0.027 0.229,-0.021 0.26,-0.021C0.311,-0.021 0.352,-0.035 0.382,-0.062C0.412,-0.089 0.433,-0.126 0.444,-0.174L0.482,-0.174C0.471,-0.114 0.446,-0.068 0.409,-0.036C0.371,-0.004 0.321,0.012 0.259,0.012C0.221,0.012 0.188,0.005 0.16,-0.009C0.131,-0.022 0.108,-0.041 0.089,-0.065C0.069,-0.088 0.055,-0.116 0.046,-0.149C0.037,-0.181 0.032,-0.216 0.032,-0.253C0.032,-0.289 0.037,-0.323 0.047,-0.357C0.056,-0.39 0.071,-0.419 0.09,-0.444C0.109,-0.468 0.134,-0.489 0.163,-0.504C0.192,-0.519 0.226,-0.526 0.265,-0.526C0.301,-0.526 0.333,-0.519 0.361,-0.506C0.388,-0.493 0.411,-0.474 0.43,-0.452C0.449,-0.428 0.463,-0.402 0.473,-0.372C0.482,-0.341 0.487,-0.309 0.487,-0.274L0.486,-0.252L0.071,-0.252ZM0.448,-0.285C0.447,-0.313 0.442,-0.339 0.434,-0.365C0.426,-0.39 0.414,-0.412 0.399,-0.431C0.383,-0.45 0.364,-0.465 0.342,-0.476C0.319,-0.487 0.294,-0.493 0.265,-0.493C0.234,-0.493 0.207,-0.487 0.184,-0.476C0.161,-0.464 0.141,-0.448 0.125,-0.43C0.109,-0.411 0.097,-0.388 0.088,-0.363C0.079,-0.338 0.074,-0.312 0.072,-0.285L0.448,-0.285Z"
          style="fill-rule:nonzero;" />
      </g>
      <g transform="matrix(48,0,0,48,37.68,0)">
        <path
          d="M0.397,-0.102L0.395,-0.102C0.389,-0.087 0.38,-0.072 0.369,-0.059C0.358,-0.045 0.344,-0.033 0.328,-0.022C0.311,-0.011 0.293,-0.003 0.272,0.003C0.251,0.009 0.229,0.012 0.204,0.012C0.149,0.012 0.107,0 0.077,-0.024C0.047,-0.047 0.032,-0.084 0.032,-0.133C0.032,-0.163 0.038,-0.188 0.05,-0.207C0.062,-0.226 0.077,-0.241 0.096,-0.252C0.114,-0.263 0.134,-0.27 0.157,-0.275C0.179,-0.28 0.2,-0.283 0.221,-0.285L0.28,-0.29C0.307,-0.292 0.329,-0.295 0.345,-0.3C0.36,-0.304 0.372,-0.31 0.38,-0.318C0.388,-0.325 0.393,-0.335 0.395,-0.347C0.397,-0.359 0.398,-0.374 0.398,-0.392C0.398,-0.406 0.395,-0.419 0.39,-0.431C0.385,-0.443 0.376,-0.454 0.365,-0.463C0.354,-0.472 0.339,-0.48 0.321,-0.485C0.303,-0.49 0.281,-0.493 0.255,-0.493C0.209,-0.493 0.172,-0.482 0.144,-0.459C0.115,-0.436 0.1,-0.402 0.097,-0.356L0.059,-0.356C0.062,-0.413 0.08,-0.455 0.114,-0.484C0.147,-0.512 0.195,-0.526 0.257,-0.526C0.319,-0.526 0.364,-0.514 0.393,-0.49C0.421,-0.465 0.435,-0.433 0.435,-0.394L0.435,-0.095C0.435,-0.088 0.435,-0.08 0.436,-0.073C0.436,-0.066 0.437,-0.059 0.439,-0.053C0.441,-0.047 0.444,-0.042 0.449,-0.039C0.454,-0.035 0.46,-0.033 0.469,-0.033C0.476,-0.033 0.485,-0.034 0.497,-0.036L0.497,-0.004C0.487,-0.001 0.477,-0 0.466,-0C0.451,-0 0.439,-0.002 0.43,-0.006C0.421,-0.01 0.414,-0.015 0.409,-0.022C0.404,-0.029 0.401,-0.037 0.4,-0.046C0.398,-0.055 0.397,-0.064 0.397,-0.075L0.397,-0.102ZM0.397,-0.292C0.388,-0.281 0.374,-0.273 0.355,-0.269C0.335,-0.265 0.314,-0.262 0.291,-0.26L0.227,-0.254C0.208,-0.252 0.19,-0.249 0.171,-0.246C0.152,-0.242 0.136,-0.236 0.121,-0.227C0.106,-0.218 0.093,-0.206 0.084,-0.192C0.075,-0.177 0.07,-0.157 0.07,-0.133C0.07,-0.095 0.082,-0.067 0.106,-0.049C0.13,-0.03 0.163,-0.021 0.205,-0.021C0.248,-0.021 0.283,-0.029 0.308,-0.045C0.333,-0.06 0.353,-0.078 0.366,-0.099C0.379,-0.119 0.388,-0.138 0.392,-0.158C0.395,-0.177 0.397,-0.189 0.397,-0.196L0.397,-0.292Z"
          style="fill-rule:nonzero;" />
      </g>
      <g transform="matrix(48,0,0,48,61.68,0)">
        <path
          d="M0.443,-0.355C0.441,-0.378 0.435,-0.398 0.426,-0.415C0.416,-0.432 0.403,-0.447 0.388,-0.458C0.373,-0.469 0.355,-0.478 0.335,-0.484C0.314,-0.49 0.292,-0.493 0.269,-0.493C0.237,-0.493 0.209,-0.487 0.184,-0.474C0.159,-0.46 0.139,-0.443 0.122,-0.422C0.105,-0.4 0.093,-0.375 0.084,-0.348C0.075,-0.32 0.071,-0.291 0.071,-0.262C0.071,-0.227 0.075,-0.195 0.083,-0.166C0.091,-0.137 0.103,-0.111 0.12,-0.09C0.137,-0.068 0.157,-0.051 0.182,-0.039C0.207,-0.027 0.236,-0.021 0.269,-0.021C0.293,-0.021 0.315,-0.025 0.336,-0.033C0.356,-0.041 0.374,-0.052 0.39,-0.066C0.405,-0.08 0.418,-0.097 0.428,-0.117C0.438,-0.136 0.445,-0.158 0.448,-0.181L0.486,-0.181C0.482,-0.15 0.474,-0.123 0.461,-0.099C0.448,-0.075 0.432,-0.055 0.413,-0.039C0.394,-0.022 0.372,-0.01 0.347,-0.001C0.322,0.008 0.296,0.012 0.269,0.012C0.227,0.012 0.191,0.005 0.162,-0.011C0.132,-0.025 0.108,-0.046 0.089,-0.071C0.069,-0.096 0.055,-0.126 0.047,-0.159C0.038,-0.192 0.033,-0.226 0.033,-0.262C0.033,-0.298 0.038,-0.332 0.049,-0.364C0.059,-0.396 0.074,-0.424 0.094,-0.448C0.114,-0.472 0.139,-0.491 0.168,-0.505C0.197,-0.519 0.231,-0.526 0.269,-0.526C0.297,-0.526 0.323,-0.523 0.348,-0.516C0.372,-0.509 0.394,-0.498 0.413,-0.484C0.432,-0.47 0.447,-0.452 0.459,-0.431C0.471,-0.409 0.478,-0.384 0.481,-0.355L0.443,-0.355Z"
          style="fill-rule:nonzero;" />
      </g>
      <g transform="matrix(48,0,0,48,86.592,0)">
        <path
          d="M0.245,-0.481L0.133,-0.481L0.133,-0.122C0.133,-0.101 0.135,-0.085 0.14,-0.073C0.145,-0.061 0.152,-0.052 0.162,-0.046C0.171,-0.039 0.183,-0.035 0.197,-0.034C0.21,-0.033 0.226,-0.032 0.244,-0.033L0.244,-0C0.225,0.001 0.206,0.001 0.188,-0.001C0.169,-0.002 0.153,-0.007 0.139,-0.016C0.125,-0.024 0.114,-0.036 0.106,-0.053C0.097,-0.07 0.094,-0.093 0.095,-0.122L0.095,-0.481L0,-0.481L0,-0.514L0.095,-0.514L0.095,-0.674L0.133,-0.674L0.133,-0.514L0.245,-0.514L0.245,-0.481Z"
          style="fill-rule:nonzero;" />
      </g>
      <g transform="matrix(48,0,0,48,99.024,0)">
        <path
          d="M0.074,-0.171C0.075,-0.147 0.081,-0.126 0.09,-0.108C0.099,-0.089 0.112,-0.074 0.127,-0.061C0.141,-0.048 0.159,-0.038 0.179,-0.031C0.199,-0.024 0.221,-0.021 0.244,-0.021C0.261,-0.021 0.279,-0.023 0.298,-0.026C0.317,-0.028 0.334,-0.034 0.351,-0.042C0.367,-0.05 0.38,-0.061 0.391,-0.076C0.402,-0.09 0.407,-0.108 0.407,-0.13C0.407,-0.159 0.398,-0.18 0.381,-0.195C0.364,-0.21 0.342,-0.221 0.316,-0.229C0.289,-0.237 0.261,-0.243 0.231,-0.249C0.2,-0.254 0.172,-0.261 0.146,-0.271C0.119,-0.281 0.097,-0.295 0.08,-0.314C0.063,-0.332 0.054,-0.359 0.054,-0.394C0.054,-0.419 0.06,-0.44 0.071,-0.458C0.082,-0.474 0.097,-0.488 0.115,-0.498C0.132,-0.508 0.152,-0.515 0.174,-0.52C0.196,-0.524 0.218,-0.526 0.24,-0.526C0.267,-0.526 0.292,-0.523 0.315,-0.517C0.338,-0.511 0.359,-0.501 0.376,-0.488C0.393,-0.475 0.406,-0.458 0.416,-0.437C0.425,-0.416 0.43,-0.391 0.43,-0.362L0.392,-0.362C0.392,-0.385 0.388,-0.405 0.381,-0.422C0.373,-0.439 0.362,-0.452 0.349,-0.463C0.335,-0.473 0.319,-0.481 0.3,-0.486C0.281,-0.491 0.261,-0.493 0.24,-0.493C0.223,-0.493 0.205,-0.491 0.188,-0.488C0.17,-0.485 0.154,-0.479 0.14,-0.471C0.126,-0.463 0.115,-0.453 0.106,-0.44C0.096,-0.427 0.092,-0.412 0.092,-0.394C0.092,-0.373 0.097,-0.357 0.107,-0.344C0.117,-0.331 0.13,-0.321 0.147,-0.314C0.163,-0.306 0.181,-0.3 0.202,-0.295C0.222,-0.29 0.242,-0.286 0.263,-0.281C0.288,-0.276 0.312,-0.271 0.335,-0.265C0.357,-0.258 0.376,-0.25 0.393,-0.239C0.409,-0.228 0.422,-0.213 0.431,-0.196C0.44,-0.179 0.445,-0.157 0.445,-0.13C0.445,-0.102 0.439,-0.079 0.426,-0.061C0.413,-0.043 0.397,-0.029 0.378,-0.018C0.359,-0.007 0.337,0.001 0.314,0.006C0.29,0.01 0.267,0.012 0.244,0.012C0.215,0.012 0.188,0.008 0.163,0.001C0.137,-0.007 0.116,-0.019 0.097,-0.035C0.078,-0.05 0.064,-0.069 0.053,-0.092C0.042,-0.115 0.037,-0.141 0.036,-0.171L0.074,-0.171Z"
          style="fill-rule:nonzero;" />
      </g>
      <g transform="matrix(48,0,0,48,122.112,0)">
        <path
          d="M0.245,-0.481L0.133,-0.481L0.133,-0.122C0.133,-0.101 0.135,-0.085 0.14,-0.073C0.145,-0.061 0.152,-0.052 0.162,-0.046C0.171,-0.039 0.183,-0.035 0.197,-0.034C0.21,-0.033 0.226,-0.032 0.244,-0.033L0.244,-0C0.225,0.001 0.206,0.001 0.188,-0.001C0.169,-0.002 0.153,-0.007 0.139,-0.016C0.125,-0.024 0.114,-0.036 0.106,-0.053C0.097,-0.07 0.094,-0.093 0.095,-0.122L0.095,-0.481L0,-0.481L0,-0.514L0.095,-0.514L0.095,-0.674L0.133,-0.674L0.133,-0.514L0.245,-0.514L0.245,-0.481Z"
          style="fill-rule:nonzero;" />
      </g>
      <g transform="matrix(48,0,0,48,134.544,0)">
        <path
          d="M0.094,-0.4L0.097,-0.4C0.102,-0.417 0.11,-0.432 0.123,-0.447C0.135,-0.462 0.15,-0.474 0.168,-0.485C0.185,-0.496 0.205,-0.504 0.227,-0.51C0.248,-0.515 0.271,-0.518 0.294,-0.517L0.294,-0.479C0.274,-0.482 0.251,-0.48 0.226,-0.473C0.2,-0.466 0.175,-0.452 0.152,-0.429C0.143,-0.419 0.135,-0.409 0.128,-0.4C0.121,-0.391 0.115,-0.38 0.11,-0.369C0.105,-0.358 0.102,-0.345 0.099,-0.331C0.096,-0.317 0.095,-0.3 0.094,-0.281L0.094,-0L0.056,-0L0.056,-0.514L0.094,-0.514L0.094,-0.4Z"
          style="fill-rule:nonzero;" />
      </g>
      <g transform="matrix(48,0,0,48,146.928,0)">
        <path
          d="M0.397,-0.102L0.395,-0.102C0.389,-0.087 0.38,-0.072 0.369,-0.059C0.358,-0.045 0.344,-0.033 0.328,-0.022C0.311,-0.011 0.293,-0.003 0.272,0.003C0.251,0.009 0.229,0.012 0.204,0.012C0.149,0.012 0.107,0 0.077,-0.024C0.047,-0.047 0.032,-0.084 0.032,-0.133C0.032,-0.163 0.038,-0.188 0.05,-0.207C0.062,-0.226 0.077,-0.241 0.096,-0.252C0.114,-0.263 0.134,-0.27 0.157,-0.275C0.179,-0.28 0.2,-0.283 0.221,-0.285L0.28,-0.29C0.307,-0.292 0.329,-0.295 0.345,-0.3C0.36,-0.304 0.372,-0.31 0.38,-0.318C0.388,-0.325 0.393,-0.335 0.395,-0.347C0.397,-0.359 0.398,-0.374 0.398,-0.392C0.398,-0.406 0.395,-0.419 0.39,-0.431C0.385,-0.443 0.376,-0.454 0.365,-0.463C0.354,-0.472 0.339,-0.48 0.321,-0.485C0.303,-0.49 0.281,-0.493 0.255,-0.493C0.209,-0.493 0.172,-0.482 0.144,-0.459C0.115,-0.436 0.1,-0.402 0.097,-0.356L0.059,-0.356C0.062,-0.413 0.08,-0.455 0.114,-0.484C0.147,-0.512 0.195,-0.526 0.257,-0.526C0.319,-0.526 0.364,-0.514 0.393,-0.49C0.421,-0.465 0.435,-0.433 0.435,-0.394L0.435,-0.095C0.435,-0.088 0.435,-0.08 0.436,-0.073C0.436,-0.066 0.437,-0.059 0.439,-0.053C0.441,-0.047 0.444,-0.042 0.449,-0.039C0.454,-0.035 0.46,-0.033 0.469,-0.033C0.476,-0.033 0.485,-0.034 0.497,-0.036L0.497,-0.004C0.487,-0.001 0.477,-0 0.466,-0C0.451,-0 0.439,-0.002 0.43,-0.006C0.421,-0.01 0.414,-0.015 0.409,-0.022C0.404,-0.029 0.401,-0.037 0.4,-0.046C0.398,-0.055 0.397,-0.064 0.397,-0.075L0.397,-0.102ZM0.397,-0.292C0.388,-0.281 0.374,-0.273 0.355,-0.269C0.335,-0.265 0.314,-0.262 0.291,-0.26L0.227,-0.254C0.208,-0.252 0.19,-0.249 0.171,-0.246C0.152,-0.242 0.136,-0.236 0.121,-0.227C0.106,-0.218 0.093,-0.206 0.084,-0.192C0.075,-0.177 0.07,-0.157 0.07,-0.133C0.07,-0.095 0.082,-0.067 0.106,-0.049C0.13,-0.03 0.163,-0.021 0.205,-0.021C0.248,-0.021 0.283,-0.029 0.308,-0.045C0.333,-0.06 0.353,-0.078 0.366,-0.099C0.379,-0.119 0.388,-0.138 0.392,-0.158C0.395,-0.177 0.397,-0.189 0.397,-0.196L0.397,-0.292Z"
          style="fill-rule:nonzero;" />
      </g>
      <g transform="matrix(48,0,0,48,170.928,0)">
        <path
          d="M0.103,-0.396L0.105,-0.396C0.109,-0.409 0.116,-0.423 0.125,-0.438C0.134,-0.453 0.147,-0.468 0.162,-0.481C0.177,-0.494 0.196,-0.504 0.218,-0.513C0.239,-0.522 0.264,-0.526 0.292,-0.526C0.331,-0.526 0.366,-0.519 0.395,-0.504C0.424,-0.489 0.448,-0.47 0.467,-0.445C0.486,-0.42 0.5,-0.392 0.509,-0.359C0.518,-0.326 0.523,-0.292 0.523,-0.256C0.523,-0.217 0.518,-0.181 0.509,-0.148C0.5,-0.115 0.486,-0.087 0.467,-0.064C0.448,-0.04 0.424,-0.021 0.395,-0.008C0.366,0.005 0.331,0.012 0.292,0.012C0.249,0.012 0.211,0.003 0.178,-0.016C0.145,-0.035 0.12,-0.065 0.105,-0.107L0.103,-0.107L0.103,0.184L0.065,0.184L0.065,-0.514L0.103,-0.514L0.103,-0.396ZM0.292,-0.021C0.325,-0.021 0.354,-0.027 0.379,-0.04C0.403,-0.053 0.423,-0.07 0.439,-0.091C0.454,-0.112 0.466,-0.137 0.474,-0.166C0.481,-0.194 0.485,-0.224 0.485,-0.256C0.485,-0.285 0.481,-0.314 0.474,-0.343C0.467,-0.371 0.455,-0.396 0.44,-0.419C0.425,-0.441 0.405,-0.459 0.381,-0.473C0.356,-0.486 0.327,-0.493 0.292,-0.493C0.258,-0.493 0.229,-0.486 0.205,-0.473C0.181,-0.46 0.162,-0.442 0.147,-0.42C0.131,-0.398 0.121,-0.373 0.114,-0.345C0.107,-0.316 0.104,-0.287 0.104,-0.256C0.104,-0.225 0.107,-0.196 0.113,-0.168C0.119,-0.139 0.129,-0.114 0.144,-0.093C0.158,-0.071 0.177,-0.054 0.202,-0.041C0.226,-0.028 0.256,-0.021 0.292,-0.021Z"
          style="fill-rule:nonzero;" />
      </g>
    </g>
  </g>
</svg>